<?xml version="1.0" encoding="UTF-8"?>
<svg id="Layer_1" xmlns="http://www.w3.org/2000/svg" version="1.1" viewBox="0 0 39.64 32.19" width="240">
  <defs>
    <style>
      .st0 {
        fill: #fff;
      }
    </style>
  </defs>
  <path class="st0" d="M19.82,32.19c-7.54,0-14.11-5.29-15.72-12.62H0v-6.94h4.1C5.71,5.29,12.28,0,19.82,0s14.11,5.29,15.72,12.62h4.1v6.94h-4.1c-1.61,7.33-8.18,12.62-15.72,12.62ZM.6,18.96h3.99l.05.24c1.46,7.18,7.85,12.38,15.18,12.38s13.72-5.21,15.18-12.38l.05-.24h3.99v-5.73h-3.99l-.05-.24c-1.46-7.18-7.85-12.38-15.18-12.38S6.1,5.81,4.64,12.99l-.05.24H.6v5.73ZM19.82,26.71c-4.62,0-8.68-2.95-10.1-7.35l-.13-.39h20.45l-.13.39c-1.42,4.4-5.48,7.35-10.1,7.35ZM10.43,19.56c1.45,3.93,5.17,6.54,9.39,6.54s7.95-2.61,9.39-6.54H10.43ZM30.05,13.23H9.59l.13-.39c1.42-4.4,5.48-7.35,10.1-7.35s8.68,2.95,10.1,7.35l.13.39ZM10.43,12.62h18.78c-1.45-3.93-5.17-6.54-9.39-6.54s-7.94,2.61-9.39,6.54Z"/>
  <path class="st0" d="M4.6,17.35c-.1.05-.31.1-.57.1-.61,0-1.07-.38-1.07-1.09s.46-1.13,1.13-1.13c.27,0,.44.06.51.1l-.07.23c-.11-.05-.26-.09-.44-.09-.51,0-.84.32-.84.89,0,.53.3.87.83.87.17,0,.34-.04.46-.09l.06.22Z"/>
  <path class="st0" d="M7.37,16.32c0,.74-.45,1.14-1,1.14s-.97-.44-.97-1.1c0-.69.43-1.13,1-1.13s.97.45.97,1.09ZM5.7,16.35c0,.46.25.88.69.88s.69-.41.69-.9c0-.43-.22-.88-.69-.88s-.69.43-.69.9Z"/>
  <path class="st0" d="M8.73,17.42l-.71-2.16h.3l.34,1.06c.09.29.17.55.23.81h0c.06-.25.15-.52.25-.8l.37-1.07h.3l-.77,2.16h-.31Z"/>
  <path class="st0" d="M11.8,16.41h-.84v.78h.94v.23h-1.21v-2.16h1.17v.23h-.89v.68h.84v.23Z"/>
  <path class="st0" d="M12.9,17.42v-2.16h.3l.69,1.09c.16.25.29.48.39.7h0c-.03-.29-.03-.55-.03-.89v-.9h.26v2.16h-.28l-.69-1.1c-.15-.24-.29-.49-.4-.72h0c.02.28.02.53.02.89v.92h-.26Z"/>
  <path class="st0" d="M16.07,15.5h-.66v-.24h1.6v.24h-.66v1.92h-.28v-1.92Z"/>
  <path class="st0" d="M20.54,17.32c-.12.04-.37.12-.66.12-.33,0-.6-.08-.81-.29-.19-.18-.3-.47-.3-.8,0-.64.45-1.12,1.17-1.12.25,0,.45.05.54.1l-.07.23c-.12-.05-.26-.09-.48-.09-.53,0-.87.33-.87.87s.33.87.83.87c.18,0,.31-.03.37-.06v-.64h-.44v-.22h.71v1.04Z"/>
  <path class="st0" d="M21.96,16.74l-.22.68h-.29l.73-2.16h.34l.74,2.16h-.3l-.23-.68h-.77ZM22.67,16.52l-.21-.62c-.05-.14-.08-.27-.11-.39h0c-.03.13-.07.26-.11.39l-.21.62h.65Z"/>
  <path class="st0" d="M24.21,15.29c.14-.03.34-.04.54-.04.3,0,.49.05.62.18.11.1.17.24.17.41,0,.29-.18.47-.41.55h0c.17.07.27.22.32.45.07.3.12.51.17.59h-.29c-.04-.06-.08-.25-.14-.52-.06-.3-.18-.41-.43-.42h-.26v.94h-.28v-2.13ZM24.49,16.27h.29c.3,0,.49-.16.49-.41,0-.28-.2-.4-.5-.4-.13,0-.23.01-.28.03v.79Z"/>
  <path class="st0" d="M26.58,15.29c.17-.03.37-.04.59-.04.4,0,.69.09.88.27.19.18.3.43.3.78s-.11.64-.31.84c-.2.2-.54.31-.96.31-.2,0-.37,0-.51-.03v-2.12ZM26.86,17.2c.07.01.17.02.28.02.6,0,.92-.33.92-.92,0-.51-.29-.83-.87-.83-.14,0-.25.01-.33.03v1.71Z"/>
  <path class="st0" d="M30.48,16.41h-.84v.78h.94v.23h-1.21v-2.16h1.17v.23h-.89v.68h.84v.23Z"/>
  <path class="st0" d="M31.58,17.42v-2.16h.3l.69,1.09c.16.25.29.48.39.7h0c-.03-.29-.03-.55-.03-.89v-.9h.26v2.16h-.28l-.69-1.1c-.15-.24-.29-.49-.4-.72h0c.02.28.02.53.02.89v.92h-.26Z"/>
</svg>